<svg width="41" height="41" viewBox="0 0 41 41" fill="none" xmlns="http://www.w3.org/2000/svg">
<path d="M20.5 0C9.1754 0 0 9.1754 0 20.5C0 31.8246 9.1754 41 20.5 41C31.8246 41 41 31.8246 41 20.5C41 9.1754 31.8246 0 20.5 0ZM20.5 7.93548C24.5173 7.93548 27.7742 11.1923 27.7742 15.2097C27.7742 19.227 24.5173 22.4839 20.5 22.4839C16.4827 22.4839 13.2258 19.227 13.2258 15.2097C13.2258 11.1923 16.4827 7.93548 20.5 7.93548ZM20.5 36.371C15.6478 36.371 11.2998 34.1722 8.39012 30.7335C9.94415 27.8073 12.9861 25.7903 16.5323 25.7903C16.7306 25.7903 16.929 25.8234 17.1192 25.8812C18.1938 26.2284 19.3179 26.4516 20.5 26.4516C21.6821 26.4516 22.8145 26.2284 23.8808 25.8812C24.071 25.8234 24.2694 25.7903 24.4677 25.7903C28.0139 25.7903 31.0558 27.8073 32.6099 30.7335C29.7002 34.1722 25.3522 36.371 20.5 36.371Z" fill="white"/>
</svg>
