<svg width="500" height="160" viewBox="0 0 500 160" fill="none" xmlns="http://www.w3.org/2000/svg">
<g clip-path="url(#clip0)">
<path d="M38.1804 22.7659C41.0593 21.0894 44.0439 19.6013 47.1154 18.3109C53.6504 15.5259 60.3954 13.9359 67.3504 13.2309L74.8504 21.7259L71.3654 30.5009C64.5654 31.8059 58.1604 34.3059 52.1704 37.9259L50.8704 38.7059L49.6954 27.1409L38.1804 22.7409V22.7659ZM34.9304 24.8259L46.8554 29.4309L48.1004 40.8359C41.6445 45.5659 36.4574 51.8179 33.0004 59.0359C32.6609 59.6832 32.3473 60.3437 32.0604 61.0159L23.6754 50.8359L9.9804 53.7309C13.3778 46.4008 18.0293 39.7205 23.7254 33.9909C27.1133 30.5686 30.839 27.4979 34.8454 24.8259H34.9304ZM113.47 105.186C114.736 103.082 115.809 100.868 116.675 98.5709L129.59 114.251L151.285 109.566C150.033 113.004 148.564 116.359 146.885 119.611C142.478 128.134 136.484 135.737 129.225 142.011C121.905 148.389 113.339 153.177 104.07 156.071L103.525 156.231L87.4604 142.636L91.6554 124.141L91.9904 124.016C101.185 120.001 108.37 113.801 113.475 105.111L113.47 105.186ZM140.63 32.0409C141.965 33.8609 143.185 35.7609 144.385 37.7409C149.304 45.9886 152.774 55.0173 154.645 64.4359C156.472 73.7722 156.744 83.346 155.45 92.7709C154.777 97.3002 153.74 101.768 152.35 106.131L130.655 110.791L117.66 95.0659C119.203 89.1648 119.338 82.9839 118.055 77.0209C116.54 69.6009 113.26 63.2409 108.36 58.0059L131.745 55.2209L140.47 32.0459L140.63 32.0409ZM8.5504 57.2459L22.5354 54.2809L30.7904 64.3259C28.1554 71.5659 27.5854 79.0659 28.8904 86.8509C29.1754 89.0909 29.6704 91.2309 30.2704 93.3109L15.4754 89.9509L4.8754 102.506C3.61084 96.9163 2.98185 91.2018 3.0004 85.4709C3.0004 75.7859 4.7954 66.4659 8.3604 57.4759L8.4654 57.2159L8.5504 57.2459ZM31.4904 96.8059C33.6416 102.485 36.8214 107.719 40.8704 112.246C43.8632 115.706 47.3872 118.668 51.3104 121.021L36.6254 129.436L37.4304 148.521C32.5697 145.506 28.0921 141.913 24.0954 137.821C17.3621 130.935 12.06 122.783 8.4954 113.836C7.5104 111.336 6.6954 108.836 5.9954 106.336L16.9104 93.5209L31.6954 96.9359L31.4904 96.8059ZM54.4804 122.766C57.6994 124.373 61.103 125.581 64.6154 126.361C72.6604 128.236 80.5304 127.926 88.1304 125.421L83.9654 143.806L99.8804 157.271C91.9295 159.348 83.7176 160.251 75.5054 159.951C63.2872 159.587 51.3323 156.311 40.6354 150.396L39.8304 131.176L54.4804 122.766ZM138.39 29.0909L129.645 52.3509L105.53 55.2359C104.825 54.6359 104.125 54.0359 103.365 53.5409C95.6297 47.607 86.3844 43.9622 76.6804 43.0209C74.3604 42.8409 72.1754 42.8409 70.0604 42.8409L78.4754 21.3259L60.3004 0.625928C65.7954 0.0259283 71.2054 -0.0540717 76.6804 0.0259283C79.9604 0.130928 83.1854 0.365928 86.4204 0.780928C90.9454 1.38093 95.4004 2.36593 99.8254 3.59593C109.122 6.17788 117.826 10.5477 125.45 16.4609C130.255 20.1344 134.6 24.3732 138.39 29.0859V29.0909Z" fill="url(#paint0_linear)"/>
</g>
<path d="M184.88 111.576C182.192 111.576 180.048 110.808 178.448 109.272C176.912 107.672 176.144 105.528 176.144 102.84V51.48C176.144 48.856 176.912 46.776 178.448 45.24C180.048 43.64 182.192 42.84 184.88 42.84C187.632 42.84 189.808 43.64 191.408 45.24C193.008 46.776 193.808 48.856 193.808 51.48V102.84C193.808 105.528 193.008 107.672 191.408 109.272C189.808 110.808 187.632 111.576 184.88 111.576ZM232.834 99.384C237.122 99.64 239.266 101.56 239.266 105.144C239.266 107.384 238.402 109.048 236.674 110.136C234.946 111.224 232.482 111.672 229.282 111.48L226.594 111.288C220.834 110.84 216.45 109.112 213.442 106.104C210.498 103.032 209.026 98.776 209.026 93.336V76.344H206.242C201.122 76.344 198.562 74.232 198.562 70.008C198.562 65.848 201.122 63.768 206.242 63.768H209.026V57.528C209.026 55.096 209.794 53.176 211.33 51.768C212.866 50.296 214.946 49.56 217.57 49.56C220.194 49.56 222.274 50.296 223.81 51.768C225.346 53.176 226.114 55.096 226.114 57.528V63.768H231.394C236.514 63.768 239.074 65.848 239.074 70.008C239.074 74.232 236.514 76.344 231.394 76.344H226.114V94.776C226.114 95.992 226.466 97.016 227.17 97.848C227.938 98.68 228.898 99.128 230.05 99.192L232.834 99.384ZM282.205 95.832C283.677 95.832 284.861 96.408 285.757 97.56C286.717 98.712 287.197 100.216 287.197 102.072C287.197 104.632 285.949 106.584 283.453 107.928C281.277 109.016 278.685 109.944 275.677 110.712C272.733 111.416 270.013 111.768 267.517 111.768C262.269 111.768 257.693 110.776 253.789 108.792C249.885 106.808 246.877 103.96 244.765 100.248C242.653 96.536 241.597 92.184 241.597 87.192C241.597 82.456 242.589 78.232 244.573 74.52C246.621 70.744 249.437 67.832 253.021 65.784C256.669 63.672 260.765 62.616 265.309 62.616C269.725 62.616 273.597 63.576 276.925 65.496C280.253 67.416 282.813 70.136 284.605 73.656C286.461 77.176 287.389 81.304 287.389 86.04C287.389 87.512 287.037 88.664 286.333 89.496C285.693 90.264 284.733 90.648 283.453 90.648H258.109C258.557 93.72 259.549 95.928 261.085 97.272C262.621 98.616 264.893 99.288 267.901 99.288C269.501 99.288 270.973 99.128 272.317 98.808C273.661 98.424 275.165 97.912 276.829 97.272C277.789 96.888 278.717 96.568 279.613 96.312C280.573 95.992 281.437 95.832 282.205 95.832ZM265.789 74.136C263.549 74.136 261.757 74.872 260.413 76.344C259.069 77.752 258.269 79.832 258.013 82.584H273.085C272.701 76.952 270.269 74.136 265.789 74.136ZM325.732 67.608C326.436 66.008 327.396 64.824 328.612 64.056C329.892 63.288 331.268 62.904 332.74 62.904C334.852 62.904 336.708 63.608 338.308 65.016C339.972 66.424 340.804 68.12 340.804 70.104C340.804 71.192 340.548 72.248 340.036 73.272L323.236 106.68C322.468 108.28 321.348 109.528 319.876 110.424C318.468 111.256 316.9 111.672 315.172 111.672C313.444 111.672 311.844 111.256 310.372 110.424C308.9 109.528 307.78 108.28 307.012 106.68L290.212 73.272C289.7 72.12 289.444 71.096 289.444 70.2C289.444 68.152 290.308 66.424 292.036 65.016C293.828 63.544 295.876 62.808 298.18 62.808C299.716 62.808 301.124 63.224 302.404 64.056C303.748 64.824 304.772 66.008 305.476 67.608L315.652 89.592L325.732 67.608ZM383.455 95.832C384.927 95.832 386.111 96.408 387.007 97.56C387.967 98.712 388.447 100.216 388.447 102.072C388.447 104.632 387.199 106.584 384.703 107.928C382.527 109.016 379.935 109.944 376.927 110.712C373.983 111.416 371.263 111.768 368.767 111.768C363.519 111.768 358.943 110.776 355.039 108.792C351.135 106.808 348.127 103.96 346.015 100.248C343.903 96.536 342.847 92.184 342.847 87.192C342.847 82.456 343.839 78.232 345.823 74.52C347.871 70.744 350.687 67.832 354.271 65.784C357.919 63.672 362.015 62.616 366.559 62.616C370.975 62.616 374.847 63.576 378.175 65.496C381.503 67.416 384.063 70.136 385.855 73.656C387.711 77.176 388.639 81.304 388.639 86.04C388.639 87.512 388.287 88.664 387.583 89.496C386.943 90.264 385.983 90.648 384.703 90.648H359.359C359.807 93.72 360.799 95.928 362.335 97.272C363.871 98.616 366.143 99.288 369.151 99.288C370.751 99.288 372.223 99.128 373.567 98.808C374.911 98.424 376.415 97.912 378.079 97.272C379.039 96.888 379.967 96.568 380.863 96.312C381.823 95.992 382.687 95.832 383.455 95.832ZM367.039 74.136C364.799 74.136 363.007 74.872 361.663 76.344C360.319 77.752 359.519 79.832 359.263 82.584H374.335C373.951 76.952 371.519 74.136 367.039 74.136ZM428.206 62.616C433.838 62.616 438.03 64.312 440.781 67.704C443.534 71.032 444.91 76.12 444.91 82.968V103.704C444.91 106.136 444.142 108.056 442.606 109.464C441.07 110.872 438.99 111.576 436.366 111.576C433.742 111.576 431.662 110.872 430.126 109.464C428.59 108.056 427.822 106.136 427.822 103.704V83.736C427.822 80.92 427.31 78.872 426.286 77.592C425.326 76.312 423.854 75.672 421.87 75.672C419.31 75.672 417.262 76.504 415.726 78.168C414.254 79.768 413.518 81.944 413.518 84.696V103.704C413.518 106.136 412.75 108.056 411.214 109.464C409.678 110.872 407.598 111.576 404.974 111.576C402.35 111.576 400.27 110.872 398.734 109.464C397.198 108.056 396.43 106.136 396.43 103.704V70.488C396.43 68.248 397.23 66.424 398.83 65.016C400.43 63.544 402.51 62.808 405.07 62.808C407.502 62.808 409.422 63.48 410.83 64.824C412.302 66.168 413.038 67.928 413.038 70.104C414.702 67.672 416.846 65.816 419.47 64.536C422.094 63.256 425.006 62.616 428.206 62.616ZM490.363 98.424C495.483 98.424 498.042 100.504 498.042 104.664C498.042 108.888 495.483 111 490.363 111H460.123C457.883 111 456.059 110.296 454.651 108.888C453.243 107.48 452.539 105.784 452.539 103.8C452.539 101.688 453.339 99.736 454.939 97.944L475.099 76.344H459.643C454.523 76.344 451.963 74.232 451.963 70.008C451.963 65.848 454.523 63.768 459.643 63.768H488.731C490.971 63.768 492.795 64.472 494.203 65.88C495.611 67.288 496.315 68.984 496.315 70.968C496.315 73.016 495.515 74.936 493.915 76.728L473.659 98.424H490.363Z" fill="url(#paint1_linear)"/>
<defs>
<linearGradient id="paint0_linear" x1="149.616" y1="64.006" x2="-41.0511" y2="168.673" gradientUnits="userSpaceOnUse">
<stop stop-color="#0019FA"/>
<stop offset="0.375" stop-color="#00A3FF"/>
<stop offset="0.692708" stop-color="#00FFA3"/>
</linearGradient>
<linearGradient id="paint1_linear" x1="170" y1="79.5" x2="500" y2="79.5" gradientUnits="userSpaceOnUse">
<stop stop-color="#0019FA"/>
<stop offset="0.438767" stop-color="#00A3FF"/>
<stop offset="0.880208" stop-color="#00FFA3"/>
</linearGradient>
<clipPath id="clip0">
<rect width="160" height="160" fill="white"/>
</clipPath>
</defs>
</svg>
